<mxfile host="app.diagrams.net" modified="2023-05-23T15:14:02.806Z" agent="Mozilla/5.0 (Windows NT 10.0; Win64; x64) AppleWebKit/537.36 (KHTML, like Gecko) Chrome/113.0.0.0 Safari/537.36" etag="3XBDgdDv16txgUnttmyV" version="21.3.2" type="github">
  <diagram id="C5RBs43oDa-KdzZeNtuy" name="Page-1">
    <mxGraphModel dx="989" dy="494" grid="1" gridSize="10" guides="1" tooltips="1" connect="1" arrows="1" fold="1" page="1" pageScale="1" pageWidth="827" pageHeight="1169" math="0" shadow="0">
      <root>
        <mxCell id="WIyWlLk6GJQsqaUBKTNV-0" />
        <mxCell id="WIyWlLk6GJQsqaUBKTNV-1" parent="WIyWlLk6GJQsqaUBKTNV-0" />
        <mxCell id="YSX1xhRVIbN5Q6Pjr2tT-7" style="edgeStyle=orthogonalEdgeStyle;rounded=0;orthogonalLoop=1;jettySize=auto;html=1;endArrow=none;endFill=0;" edge="1" parent="WIyWlLk6GJQsqaUBKTNV-1" source="YSX1xhRVIbN5Q6Pjr2tT-0" target="YSX1xhRVIbN5Q6Pjr2tT-6">
          <mxGeometry relative="1" as="geometry" />
        </mxCell>
        <mxCell id="YSX1xhRVIbN5Q6Pjr2tT-19" style="edgeStyle=orthogonalEdgeStyle;rounded=0;orthogonalLoop=1;jettySize=auto;html=1;entryX=0;entryY=0.5;entryDx=0;entryDy=0;" edge="1" parent="WIyWlLk6GJQsqaUBKTNV-1" source="YSX1xhRVIbN5Q6Pjr2tT-0" target="YSX1xhRVIbN5Q6Pjr2tT-18">
          <mxGeometry relative="1" as="geometry">
            <Array as="points">
              <mxPoint x="225" y="795" />
            </Array>
          </mxGeometry>
        </mxCell>
        <mxCell id="YSX1xhRVIbN5Q6Pjr2tT-0" value=":&lt;u&gt;CCurso&lt;/u&gt;" style="html=1;whiteSpace=wrap;" vertex="1" parent="WIyWlLk6GJQsqaUBKTNV-1">
          <mxGeometry x="170" y="640" width="110" height="50" as="geometry" />
        </mxCell>
        <mxCell id="YSX1xhRVIbN5Q6Pjr2tT-1" value="listadoCurso():Set(String)" style="endArrow=none;endFill=0;html=1;edgeStyle=orthogonalEdgeStyle;align=left;verticalAlign=top;rounded=0;" edge="1" parent="WIyWlLk6GJQsqaUBKTNV-1">
          <mxGeometry x="-0.75" y="30" relative="1" as="geometry">
            <mxPoint x="10" y="660" as="sourcePoint" />
            <mxPoint x="170" y="660" as="targetPoint" />
            <mxPoint as="offset" />
          </mxGeometry>
        </mxCell>
        <mxCell id="YSX1xhRVIbN5Q6Pjr2tT-5" value="" style="verticalLabelPosition=bottom;verticalAlign=top;html=1;shape=mxgraph.basic.layered_rect;dx=10;outlineConnect=0;whiteSpace=wrap;rotation=-90;" vertex="1" parent="WIyWlLk6GJQsqaUBKTNV-1">
          <mxGeometry x="500" y="617.5" width="58.75" height="95" as="geometry" />
        </mxCell>
        <mxCell id="YSX1xhRVIbN5Q6Pjr2tT-6" value=":&lt;u&gt;Curso&lt;/u&gt;" style="text;html=1;strokeColor=none;fillColor=none;align=center;verticalAlign=middle;whiteSpace=wrap;rounded=0;" vertex="1" parent="WIyWlLk6GJQsqaUBKTNV-1">
          <mxGeometry x="480" y="645" width="78.75" height="40" as="geometry" />
        </mxCell>
        <mxCell id="YSX1xhRVIbN5Q6Pjr2tT-10" value="1*: [for each]" style="text;html=1;strokeColor=none;fillColor=none;align=center;verticalAlign=middle;whiteSpace=wrap;rounded=0;" vertex="1" parent="WIyWlLk6GJQsqaUBKTNV-1">
          <mxGeometry x="280" y="640" width="90" height="30" as="geometry" />
        </mxCell>
        <mxCell id="YSX1xhRVIbN5Q6Pjr2tT-11" value="c:=next()" style="text;html=1;strokeColor=none;fillColor=none;align=center;verticalAlign=middle;whiteSpace=wrap;rounded=0;" vertex="1" parent="WIyWlLk6GJQsqaUBKTNV-1">
          <mxGeometry x="370" y="620" width="60" height="30" as="geometry" />
        </mxCell>
        <mxCell id="YSX1xhRVIbN5Q6Pjr2tT-14" value="" style="endArrow=classic;html=1;rounded=0;" edge="1" parent="WIyWlLk6GJQsqaUBKTNV-1">
          <mxGeometry width="50" height="50" relative="1" as="geometry">
            <mxPoint x="375" y="650" as="sourcePoint" />
            <mxPoint x="425" y="650" as="targetPoint" />
          </mxGeometry>
        </mxCell>
        <mxCell id="YSX1xhRVIbN5Q6Pjr2tT-15" value="" style="endArrow=classic;html=1;rounded=0;" edge="1" parent="WIyWlLk6GJQsqaUBKTNV-1">
          <mxGeometry width="50" height="50" relative="1" as="geometry">
            <mxPoint x="70" y="650" as="sourcePoint" />
            <mxPoint x="100" y="650" as="targetPoint" />
          </mxGeometry>
        </mxCell>
        <mxCell id="YSX1xhRVIbN5Q6Pjr2tT-17" value="&amp;lt;&amp;lt;asociacion&amp;gt;&amp;gt;" style="text;html=1;strokeColor=none;fillColor=none;align=center;verticalAlign=middle;whiteSpace=wrap;rounded=0;" vertex="1" parent="WIyWlLk6GJQsqaUBKTNV-1">
          <mxGeometry x="400" y="670" width="60" height="30" as="geometry" />
        </mxCell>
        <mxCell id="YSX1xhRVIbN5Q6Pjr2tT-18" value="c:&lt;u&gt;Curso&lt;/u&gt;" style="html=1;whiteSpace=wrap;" vertex="1" parent="WIyWlLk6GJQsqaUBKTNV-1">
          <mxGeometry x="474.37" y="770" width="110" height="50" as="geometry" />
        </mxCell>
        <mxCell id="YSX1xhRVIbN5Q6Pjr2tT-20" value="2*:" style="text;html=1;strokeColor=none;fillColor=none;align=center;verticalAlign=middle;whiteSpace=wrap;rounded=0;" vertex="1" parent="WIyWlLk6GJQsqaUBKTNV-1">
          <mxGeometry x="220" y="770" width="60" height="30" as="geometry" />
        </mxCell>
        <mxCell id="YSX1xhRVIbN5Q6Pjr2tT-22" value="nom :=getNombre(): String" style="text;html=1;strokeColor=none;fillColor=none;align=center;verticalAlign=middle;whiteSpace=wrap;rounded=0;" vertex="1" parent="WIyWlLk6GJQsqaUBKTNV-1">
          <mxGeometry x="250" y="760" width="210" height="30" as="geometry" />
        </mxCell>
        <mxCell id="YSX1xhRVIbN5Q6Pjr2tT-23" value="" style="endArrow=classic;html=1;rounded=0;" edge="1" parent="WIyWlLk6GJQsqaUBKTNV-1">
          <mxGeometry width="50" height="50" relative="1" as="geometry">
            <mxPoint x="325" y="790" as="sourcePoint" />
            <mxPoint x="375" y="790" as="targetPoint" />
          </mxGeometry>
        </mxCell>
        <mxCell id="YSX1xhRVIbN5Q6Pjr2tT-24" value="&amp;lt;&amp;lt;local&amp;gt;&amp;gt;" style="text;html=1;strokeColor=none;fillColor=none;align=center;verticalAlign=middle;whiteSpace=wrap;rounded=0;" vertex="1" parent="WIyWlLk6GJQsqaUBKTNV-1">
          <mxGeometry x="400" y="790" width="60" height="30" as="geometry" />
        </mxCell>
        <mxCell id="YSX1xhRVIbN5Q6Pjr2tT-26" value="Agrega nom al resultado" style="shape=note;whiteSpace=wrap;html=1;backgroundOutline=1;darkOpacity=0.05;size=15;" vertex="1" parent="WIyWlLk6GJQsqaUBKTNV-1">
          <mxGeometry x="50" y="745" width="150" height="65" as="geometry" />
        </mxCell>
        <mxCell id="YSX1xhRVIbN5Q6Pjr2tT-27" value="" style="endArrow=none;dashed=1;html=1;rounded=0;entryX=0.187;entryY=1.06;entryDx=0;entryDy=0;entryPerimeter=0;" edge="1" parent="WIyWlLk6GJQsqaUBKTNV-1" target="YSX1xhRVIbN5Q6Pjr2tT-0">
          <mxGeometry width="50" height="50" relative="1" as="geometry">
            <mxPoint x="150" y="745" as="sourcePoint" />
            <mxPoint x="200" y="695" as="targetPoint" />
          </mxGeometry>
        </mxCell>
      </root>
    </mxGraphModel>
  </diagram>
</mxfile>
